<svg xmlns="http://www.w3.org/2000/svg" version="1.1" xmlns:xlink="http://www.w3.org/1999/xlink" xmlns:svgjs="http://svgjs.com/svgjs" width="1440" height="560" preserveAspectRatio="none" viewBox="0 0 1440 560"><g mask="url(&quot;#SvgjsMask1692&quot;)" fill="none"><rect width="1440" height="560" x="0" y="0" fill="url(#SvgjsLinearGradient1693)"></rect><path d="M89.94 80.98L154.9 118.48L154.9 193.48L89.94 230.98L24.99 193.48L24.99 118.48zM154.9 418.48L219.85 455.98L219.85 530.98L154.9 568.48L89.94 530.98L89.94 455.98zM219.85 530.98L284.81 568.48L284.81 643.48L219.85 680.98L154.9 643.48L154.9 568.48zM349.76 305.98L414.71 343.48L414.71 418.48L349.76 455.98L284.81 418.48L284.81 343.48zM479.67 305.98L544.62 343.48L544.62 418.48L479.67 455.98L414.71 418.48L414.71 343.48zM739.48 80.98L804.44 118.48L804.44 193.48L739.48 230.98L674.53 193.48L674.53 118.48zM804.43 418.48L869.39 455.98L869.39 530.98L804.43 568.48L739.48 530.98L739.48 455.98zM1129.2 530.98L1194.16 568.48L1194.16 643.48L1129.2 680.98L1064.25 643.48L1064.25 568.48zM1194.16 -31.52L1259.11 5.98L1259.11 80.98L1194.16 118.48L1129.2 80.98L1129.2 5.98zM1259.11 530.98L1324.06 568.48L1324.06 643.48L1259.11 680.98L1194.16 643.48L1194.16 568.48zM1389.02 305.98L1453.97 343.48L1453.97 418.48L1389.02 455.98L1324.07 418.48L1324.07 343.48z" stroke="rgba(0, 0, 0, 1)" stroke-width="2"></path><path d="M82.44 80.98 a7.5 7.5 0 1 0 15 0 a7.5 7.5 0 1 0 -15 0zM147.4 118.48 a7.5 7.5 0 1 0 15 0 a7.5 7.5 0 1 0 -15 0zM147.4 193.48 a7.5 7.5 0 1 0 15 0 a7.5 7.5 0 1 0 -15 0zM82.44 230.98 a7.5 7.5 0 1 0 15 0 a7.5 7.5 0 1 0 -15 0zM17.49 193.48 a7.5 7.5 0 1 0 15 0 a7.5 7.5 0 1 0 -15 0zM17.49 118.48 a7.5 7.5 0 1 0 15 0 a7.5 7.5 0 1 0 -15 0zM147.4 418.48 a7.5 7.5 0 1 0 15 0 a7.5 7.5 0 1 0 -15 0zM212.35 455.98 a7.5 7.5 0 1 0 15 0 a7.5 7.5 0 1 0 -15 0zM212.35 530.98 a7.5 7.5 0 1 0 15 0 a7.5 7.5 0 1 0 -15 0zM147.4 568.48 a7.5 7.5 0 1 0 15 0 a7.5 7.5 0 1 0 -15 0zM82.44 530.98 a7.5 7.5 0 1 0 15 0 a7.5 7.5 0 1 0 -15 0zM82.44 455.98 a7.5 7.5 0 1 0 15 0 a7.5 7.5 0 1 0 -15 0zM277.31 568.48 a7.5 7.5 0 1 0 15 0 a7.5 7.5 0 1 0 -15 0zM277.31 643.48 a7.5 7.5 0 1 0 15 0 a7.5 7.5 0 1 0 -15 0zM212.35 680.98 a7.5 7.5 0 1 0 15 0 a7.5 7.5 0 1 0 -15 0zM147.4 643.48 a7.5 7.5 0 1 0 15 0 a7.5 7.5 0 1 0 -15 0zM342.26 305.98 a7.5 7.5 0 1 0 15 0 a7.5 7.5 0 1 0 -15 0zM407.21 343.48 a7.5 7.5 0 1 0 15 0 a7.5 7.5 0 1 0 -15 0zM407.21 418.48 a7.5 7.5 0 1 0 15 0 a7.5 7.5 0 1 0 -15 0zM342.26 455.98 a7.5 7.5 0 1 0 15 0 a7.5 7.5 0 1 0 -15 0zM277.31 418.48 a7.5 7.5 0 1 0 15 0 a7.5 7.5 0 1 0 -15 0zM277.31 343.48 a7.5 7.5 0 1 0 15 0 a7.5 7.5 0 1 0 -15 0zM472.17 305.98 a7.5 7.5 0 1 0 15 0 a7.5 7.5 0 1 0 -15 0zM537.12 343.48 a7.5 7.5 0 1 0 15 0 a7.5 7.5 0 1 0 -15 0zM537.12 418.48 a7.5 7.5 0 1 0 15 0 a7.5 7.5 0 1 0 -15 0zM472.17 455.98 a7.5 7.5 0 1 0 15 0 a7.5 7.5 0 1 0 -15 0zM731.98 80.98 a7.5 7.5 0 1 0 15 0 a7.5 7.5 0 1 0 -15 0zM796.94 118.48 a7.5 7.5 0 1 0 15 0 a7.5 7.5 0 1 0 -15 0zM796.94 193.48 a7.5 7.5 0 1 0 15 0 a7.5 7.5 0 1 0 -15 0zM731.98 230.98 a7.5 7.5 0 1 0 15 0 a7.5 7.5 0 1 0 -15 0zM667.03 193.48 a7.5 7.5 0 1 0 15 0 a7.5 7.5 0 1 0 -15 0zM667.03 118.48 a7.5 7.5 0 1 0 15 0 a7.5 7.5 0 1 0 -15 0zM796.93 418.48 a7.5 7.5 0 1 0 15 0 a7.5 7.5 0 1 0 -15 0zM861.89 455.98 a7.5 7.5 0 1 0 15 0 a7.5 7.5 0 1 0 -15 0zM861.89 530.98 a7.5 7.5 0 1 0 15 0 a7.5 7.5 0 1 0 -15 0zM796.93 568.48 a7.5 7.5 0 1 0 15 0 a7.5 7.5 0 1 0 -15 0zM731.98 530.98 a7.5 7.5 0 1 0 15 0 a7.5 7.5 0 1 0 -15 0zM731.98 455.98 a7.5 7.5 0 1 0 15 0 a7.5 7.5 0 1 0 -15 0zM1121.7 530.98 a7.5 7.5 0 1 0 15 0 a7.5 7.5 0 1 0 -15 0zM1186.66 568.48 a7.5 7.5 0 1 0 15 0 a7.5 7.5 0 1 0 -15 0zM1186.66 643.48 a7.5 7.5 0 1 0 15 0 a7.5 7.5 0 1 0 -15 0zM1121.7 680.98 a7.5 7.5 0 1 0 15 0 a7.5 7.5 0 1 0 -15 0zM1056.75 643.48 a7.5 7.5 0 1 0 15 0 a7.5 7.5 0 1 0 -15 0zM1056.75 568.48 a7.5 7.5 0 1 0 15 0 a7.5 7.5 0 1 0 -15 0zM1186.66 -31.52 a7.5 7.5 0 1 0 15 0 a7.5 7.5 0 1 0 -15 0zM1251.61 5.98 a7.5 7.5 0 1 0 15 0 a7.5 7.5 0 1 0 -15 0zM1251.61 80.98 a7.5 7.5 0 1 0 15 0 a7.5 7.5 0 1 0 -15 0zM1186.66 118.48 a7.5 7.5 0 1 0 15 0 a7.5 7.5 0 1 0 -15 0zM1121.7 80.98 a7.5 7.5 0 1 0 15 0 a7.5 7.5 0 1 0 -15 0zM1121.7 5.98 a7.5 7.5 0 1 0 15 0 a7.5 7.5 0 1 0 -15 0zM1251.61 530.98 a7.5 7.5 0 1 0 15 0 a7.5 7.5 0 1 0 -15 0zM1316.56 568.48 a7.5 7.5 0 1 0 15 0 a7.5 7.5 0 1 0 -15 0zM1316.56 643.48 a7.5 7.5 0 1 0 15 0 a7.5 7.5 0 1 0 -15 0zM1251.61 680.98 a7.5 7.5 0 1 0 15 0 a7.5 7.5 0 1 0 -15 0zM1381.52 305.98 a7.5 7.5 0 1 0 15 0 a7.5 7.5 0 1 0 -15 0zM1446.47 343.48 a7.5 7.5 0 1 0 15 0 a7.5 7.5 0 1 0 -15 0zM1446.47 418.48 a7.5 7.5 0 1 0 15 0 a7.5 7.5 0 1 0 -15 0zM1381.52 455.98 a7.5 7.5 0 1 0 15 0 a7.5 7.5 0 1 0 -15 0zM1316.57 418.48 a7.5 7.5 0 1 0 15 0 a7.5 7.5 0 1 0 -15 0zM1316.57 343.48 a7.5 7.5 0 1 0 15 0 a7.5 7.5 0 1 0 -15 0z" fill="rgba(0, 0, 0, 1)"></path><path d="M86.57 66.14L129.88 91.14L129.88 141.14L86.57 166.14L43.27 141.14L43.27 91.14zM86.57 216.14L129.88 241.14L129.88 291.14L86.57 316.14L43.27 291.14L43.27 241.14zM43.27 291.14L86.57 316.14L86.57 366.14L43.27 391.14L-0.03 366.14L-0.03 316.14zM43.27 441.14L86.57 466.14L86.57 516.14L43.27 541.14L-0.03 516.14L-0.03 466.14zM129.88 -8.86L173.18 16.14L173.18 66.14L129.88 91.14L86.57 66.14L86.57 16.14zM173.18 66.14L216.48 91.14L216.48 141.14L173.18 166.14L129.88 141.14L129.88 91.14zM173.18 366.14L216.48 391.14L216.48 441.14L173.18 466.14L129.88 441.14L129.88 391.14zM129.88 441.14L173.18 466.14L173.18 516.14L129.88 541.14L86.57 516.14L86.57 466.14zM173.18 516.14L216.48 541.14L216.48 591.14L173.18 616.14L129.88 591.14L129.88 541.14zM259.78 66.14L303.08 91.14L303.08 141.14L259.78 166.14L216.48 141.14L216.48 91.14zM259.78 216.14L303.08 241.14L303.08 291.14L259.78 316.14L216.48 291.14L216.48 241.14zM216.48 291.14L259.78 316.14L259.78 366.14L216.48 391.14L173.18 366.14L173.18 316.14zM259.78 366.14L303.08 391.14L303.08 441.14L259.78 466.14L216.48 441.14L216.48 391.14zM303.08 141.14L346.39 166.14L346.39 216.14L303.08 241.14L259.78 216.14L259.78 166.14zM346.39 216.14L389.69 241.14L389.69 291.14L346.39 316.14L303.08 291.14L303.08 241.14zM389.69 -8.86L432.99 16.14L432.99 66.14L389.69 91.14L346.39 66.14L346.39 16.14zM432.99 66.14L476.3 91.14L476.3 141.14L432.99 166.14L389.69 141.14L389.69 91.14zM389.69 291.14L432.99 316.14L432.99 366.14L389.69 391.14L346.39 366.14L346.39 316.14zM432.99 366.14L476.3 391.14L476.3 441.14L432.99 466.14L389.69 441.14L389.69 391.14zM432.99 516.14L476.3 541.14L476.3 591.14L432.99 616.14L389.69 591.14L389.69 541.14zM476.3 -8.86L519.6 16.14L519.6 66.14L476.3 91.14L432.99 66.14L432.99 16.14zM519.6 216.14L562.9 241.14L562.9 291.14L519.6 316.14L476.3 291.14L476.3 241.14zM476.3 291.14L519.6 316.14L519.6 366.14L476.3 391.14L432.99 366.14L432.99 316.14zM519.6 366.14L562.9 391.14L562.9 441.14L519.6 466.14L476.3 441.14L476.3 391.14zM562.9 -8.86L606.2 16.14L606.2 66.14L562.9 91.14L519.6 66.14L519.6 16.14zM606.2 216.14L649.5 241.14L649.5 291.14L606.2 316.14L562.9 291.14L562.9 241.14zM606.2 366.14L649.5 391.14L649.5 441.14L606.2 466.14L562.9 441.14L562.9 391.14zM562.9 441.14L606.2 466.14L606.2 516.14L562.9 541.14L519.6 516.14L519.6 466.14zM692.81 66.14L736.11 91.14L736.11 141.14L692.81 166.14L649.5 141.14L649.5 91.14zM649.5 141.14L692.81 166.14L692.81 216.14L649.5 241.14L606.2 216.14L606.2 166.14zM822.72 141.14L866.02 166.14L866.02 216.14L822.72 241.14L779.41 216.14L779.41 166.14zM866.02 216.14L909.32 241.14L909.32 291.14L866.02 316.14L822.72 291.14L822.72 241.14zM866.02 516.14L909.32 541.14L909.32 591.14L866.02 616.14L822.72 591.14L822.72 541.14zM909.32 -8.86L952.62 16.14L952.62 66.14L909.32 91.14L866.02 66.14L866.02 16.14zM909.32 291.14L952.62 316.14L952.62 366.14L909.32 391.14L866.02 366.14L866.02 316.14zM952.62 516.14L995.93 541.14L995.93 591.14L952.62 616.14L909.32 591.14L909.32 541.14zM995.93 -8.86L1039.23 16.14L1039.23 66.14L995.93 91.14L952.62 66.14L952.62 16.14zM1039.23 66.14L1082.53 91.14L1082.53 141.14L1039.23 166.14L995.93 141.14L995.93 91.14zM995.93 141.14L1039.23 166.14L1039.23 216.14L995.93 241.14L952.62 216.14L952.62 166.14zM995.93 291.14L1039.23 316.14L1039.23 366.14L995.93 391.14L952.62 366.14L952.62 316.14zM1039.23 516.14L1082.53 541.14L1082.53 591.14L1039.23 616.14L995.93 591.14L995.93 541.14zM1082.53 -8.86L1125.83 16.14L1125.83 66.14L1082.53 91.14L1039.23 66.14L1039.23 16.14zM1082.53 291.14L1125.83 316.14L1125.83 366.14L1082.53 391.14L1039.23 366.14L1039.23 316.14zM1125.83 366.14L1169.13 391.14L1169.13 441.14L1125.83 466.14L1082.53 441.14L1082.53 391.14zM1082.53 441.14L1125.83 466.14L1125.83 516.14L1082.53 541.14L1039.23 516.14L1039.23 466.14zM1169.13 141.14L1212.44 166.14L1212.44 216.14L1169.13 241.14L1125.83 216.14L1125.83 166.14zM1212.44 366.14L1255.74 391.14L1255.74 441.14L1212.44 466.14L1169.13 441.14L1169.13 391.14zM1169.13 441.14L1212.44 466.14L1212.44 516.14L1169.13 541.14L1125.83 516.14L1125.83 466.14zM1212.44 516.14L1255.74 541.14L1255.74 591.14L1212.44 616.14L1169.13 591.14L1169.13 541.14zM1299.04 66.14L1342.35 91.14L1342.35 141.14L1299.04 166.14L1255.74 141.14L1255.74 91.14zM1255.74 141.14L1299.04 166.14L1299.04 216.14L1255.74 241.14L1212.44 216.14L1212.44 166.14zM1255.74 291.14L1299.04 316.14L1299.04 366.14L1255.74 391.14L1212.44 366.14L1212.44 316.14zM1299.04 366.14L1342.35 391.14L1342.35 441.14L1299.04 466.14L1255.74 441.14L1255.74 391.14zM1255.74 441.14L1299.04 466.14L1299.04 516.14L1255.74 541.14L1212.44 516.14L1212.44 466.14zM1342.35 -8.86L1385.65 16.14L1385.65 66.14L1342.35 91.14L1299.04 66.14L1299.04 16.14zM1385.65 516.14L1428.95 541.14L1428.95 591.14L1385.65 616.14L1342.35 591.14L1342.35 541.14zM1472.25 366.14L1515.56 391.14L1515.56 441.14L1472.25 466.14L1428.95 441.14L1428.95 391.14zM1472.25 516.14L1515.56 541.14L1515.56 591.14L1472.25 616.14L1428.95 591.14L1428.95 541.14z" stroke="rgba(0, 0, 0, 0.93)" stroke-width="2"></path></g><defs><mask id="SvgjsMask1692"><rect width="1440" height="560" fill="#ffffff"></rect></mask><linearGradient x1="15.28%" y1="-39.29%" x2="84.72%" y2="139.29%" gradientUnits="userSpaceOnUse" id="SvgjsLinearGradient1693"><stop stop-color="rgba(30, 0, 43, 1)" offset="0"></stop><stop stop-color="rgba(109, 0, 158, 1)" offset="1"></stop></linearGradient></defs></svg>